<?xml version="1.0" standalone="no"?>
<!DOCTYPE svg PUBLIC "-//W3C//DTD SVG 20010904//EN"
 "http://www.w3.org/TR/2001/REC-SVG-20010904/DTD/svg10.dtd">
<svg version="1.0" xmlns="http://www.w3.org/2000/svg"
 width="285.000000pt" height="285.000000pt" viewBox="0 0 285.000000 285.000000"
 preserveAspectRatio="xMidYMid meet">
<metadata>
Created by potrace 1.14, written by Peter Selinger 2001-2017
</metadata>
<g transform="translate(0.000000,285.000000) scale(0.100000,-0.100000)"
fill="#000000" stroke="none">
<path d="M1328 2725 c-2 -1 -34 -5 -72 -9 -342 -32 -709 -239 -940 -530 -187
-235 -299 -562 -298 -871 0 -111 18 -274 30 -286 4 -4 99 -73 212 -154 113
-81 209 -151 213 -155 8 -7 11 -23 22 -115 4 -33 9 -73 11 -90 2 -16 6 -44 9
-62 2 -17 9 -71 15 -120 6 -48 12 -97 14 -108 3 -11 5 -26 5 -32 1 -10 79 -13
356 -13 l355 0 52 -32 c45 -28 62 -32 118 -33 57 0 72 4 116 33 l51 32 356 0
c196 0 358 3 361 8 2 4 7 39 11 77 3 39 8 79 10 90 4 19 7 42 20 155 3 25 7
61 10 80 2 19 7 55 11 79 3 25 13 51 22 57 9 7 106 77 214 156 194 140 206
152 214 206 41 308 4 561 -121 829 -179 382 -505 653 -925 767 -51 14 -79 19
-170 32 -39 6 -277 13 -282 9z"/>
</g>
</svg>
